<svg xmlns="http://www.w3.org/2000/svg" width="780" height="620" viewBox="0 0 780 620"><style>@media(prefers-color-scheme:dark){[fill="#eceee1"]{fill:#2a3039}[fill="#d7ddc7"]{fill:#222730}[fill="#ced7bd"]{fill:#1b2028}[stroke="#cad2bc"]{stroke:#536074}[stroke="#b7c2a5"]{stroke:#6b788b}[fill="#53634f"]{fill:#d0d8e5}[fill="#7b8875"]{fill:#b0bccc}}</style><defs><filter id="shadow" x="-20%" y="-30%" width="140%" height="170%"><feGaussianBlur stdDeviation="13"/></filter></defs><ellipse cx="395" cy="485" rx="263" ry="48" fill="#506340" opacity=".08" filter="url(#shadow)"/><polygon points="390.0,113.8 775.4,330.0 390.0,546.2 4.6,330.0" fill="#eceee1" stroke="#b7c2a5" stroke-width="1"/><polygon points="4.6,330.0 390.0,546.2 390.0,556.2 4.6,340.0" fill="#d7ddc7" stroke="#b7c2a5" stroke-width="1"/><polygon points="775.4,330.0 390.0,546.2 390.0,556.2 775.4,340.0" fill="#ced7bd" stroke="#b7c2a5" stroke-width="1"/><path d="M410.5,125.29999999999997 L25.100000000000023,341.5 M369.5,125.29999999999997 L754.9000000000001,341.5" fill="none" stroke="#cad2bc" stroke-width=".65"/><path d="M435.1,139.09999999999997 L49.70000000000002,355.3 M344.9,139.09999999999997 L730.3000000000001,355.3" fill="none" stroke="#cad2bc" stroke-width=".65"/><path d="M459.7,152.89999999999998 L74.30000000000001,369.1 M320.3,152.89999999999998 L705.7,369.1" fill="none" stroke="#cad2bc" stroke-width=".65"/><path d="M484.3,166.7 L98.90000000000003,382.90000000000003 M295.7,166.7 L681.1,382.90000000000003" fill="none" stroke="#cad2bc" stroke-width=".65"/><path d="M508.9,180.5 L123.5,396.70000000000005 M271.1,180.49999999999997 L656.5,396.70000000000005" fill="none" stroke="#cad2bc" stroke-width=".65"/><path d="M533.5,194.29999999999995 L148.10000000000002,410.5 M246.5,194.29999999999998 L631.9000000000001,410.5" fill="none" stroke="#cad2bc" stroke-width=".65"/><path d="M558.0999999999999,208.09999999999997 L172.7,424.3 M221.9,208.09999999999997 L607.3000000000001,424.3" fill="none" stroke="#cad2bc" stroke-width=".65"/><path d="M582.7,221.89999999999998 L197.3,438.1 M197.3,221.89999999999998 L582.7,438.1" fill="none" stroke="#cad2bc" stroke-width=".65"/><path d="M607.3,235.7 L221.90000000000003,451.90000000000003 M172.70000000000002,235.7 L558.1,451.90000000000003" fill="none" stroke="#cad2bc" stroke-width=".65"/><path d="M631.9,249.5 L246.5,465.70000000000005 M148.10000000000002,249.49999999999997 L533.5,465.70000000000005" fill="none" stroke="#cad2bc" stroke-width=".65"/><path d="M656.5,263.29999999999995 L271.1,479.5 M123.50000000000001,263.29999999999995 L508.90000000000003,479.5" fill="none" stroke="#cad2bc" stroke-width=".65"/><path d="M681.0999999999999,277.09999999999997 L295.7,493.3 M98.90000000000002,277.09999999999997 L484.30000000000007,493.3" fill="none" stroke="#cad2bc" stroke-width=".65"/><path d="M705.7,290.9 L320.3,507.1 M74.30000000000003,290.9 L459.70000000000005,507.1" fill="none" stroke="#cad2bc" stroke-width=".65"/><path d="M730.3,304.7 L344.90000000000003,520.9 M49.70000000000002,304.7 L435.1,520.9" fill="none" stroke="#cad2bc" stroke-width=".65"/><path d="M754.9000000000001,318.5 L369.50000000000006,534.7 M25.100000000000023,318.5 L410.50000000000006,534.7" fill="none" stroke="#cad2bc" stroke-width=".65"/><polygon points="775.4,283.0 770.5,285.8 770.5,332.8 775.4,330.0" fill="#c6cfb4" stroke="#67705e" stroke-width="1"/><polygon points="385.1,69.6 770.5,285.8 770.5,332.8 385.1,116.6" fill="#bdc7ad" stroke="#67705e" stroke-width="1"/><polygon points="390.0,66.8 775.4,283.0 770.5,285.8 385.1,69.6" fill="#d0d7be" stroke="#67705e" stroke-width="1"/><polygon points="394.9,69.6 9.5,285.8 9.5,332.8 394.9,116.6" fill="#c6cfb4" stroke="#67705e" stroke-width="1"/><polygon points="4.6,283.0 9.5,285.8 9.5,332.8 4.6,330.0" fill="#bdc7ad" stroke="#67705e" stroke-width="1"/><polygon points="390.0,66.8 394.9,69.6 9.5,285.8 4.6,283.0" fill="#d0d7be" stroke="#67705e" stroke-width="1"/><polyline points="107.1,322.1 152.2,296.8 230.1,253.1 384.3,339.6 540.1,252.2 674.5,327.6" stroke="#c25732" stroke-width="3.5" fill="none" stroke-linejoin="round" stroke-dasharray="7 5"/><polygon points="449.9,166.6 363.8,214.9 363.8,273.9 449.9,225.6" fill="#768765" stroke="#67705e" stroke-width="1"/><polygon points="320.3,190.5 363.8,214.9 363.8,273.9 320.3,249.5" fill="#939e75" stroke="#67705e" stroke-width="1"/><polygon points="406.4,142.2 449.9,166.6 363.8,214.9 320.3,190.5" fill="#b7bd91" stroke="#67705e" stroke-width="1"/><path d="M320.29999999999995,231.5 L363.76,255.88 M449.86,207.57999999999998 L363.76,255.88" stroke="#536b51" stroke-width="2.5" fill="none"/><path d="M320.29999999999995,213.5 L363.76,237.88 M449.86,189.57999999999998 L363.76,237.88" stroke="#536b51" stroke-width="2.5" fill="none"/><path d="M320.29999999999995,249.5 L320.29999999999995,190.5 M363.76,273.88 L363.76,214.88 M449.86,225.57999999999998 L449.86,166.57999999999998" stroke="#536b51" stroke-width="3" fill="none"/><polygon points="544.2,219.5 458.1,267.8 458.1,326.8 544.2,278.5" fill="#768765" stroke="#67705e" stroke-width="1"/><polygon points="414.6,243.4 458.1,267.8 458.1,326.8 414.6,302.4" fill="#939e75" stroke="#67705e" stroke-width="1"/><polygon points="500.7,195.1 544.2,219.5 458.1,267.8 414.6,243.4" fill="#b7bd91" stroke="#67705e" stroke-width="1"/><path d="M414.59999999999997,284.40000000000003 L458.05999999999995,308.78000000000003 M544.16,260.48 L458.05999999999995,308.78000000000003" stroke="#536b51" stroke-width="2.5" fill="none"/><path d="M414.59999999999997,266.40000000000003 L458.05999999999995,290.78000000000003 M544.16,242.48000000000002 L458.05999999999995,290.78000000000003" stroke="#536b51" stroke-width="2.5" fill="none"/><path d="M414.59999999999997,302.40000000000003 L414.59999999999997,243.40000000000003 M458.05999999999995,326.78000000000003 L458.05999999999995,267.78000000000003 M544.16,278.48 L544.16,219.48000000000002" stroke="#536b51" stroke-width="3" fill="none"/><polygon points="638.5,272.4 552.4,320.7 552.4,379.7 638.5,331.4" fill="#768765" stroke="#67705e" stroke-width="1"/><polygon points="508.9,296.3 552.4,320.7 552.4,379.7 508.9,355.3" fill="#939e75" stroke="#67705e" stroke-width="1"/><polygon points="595.0,248.0 638.5,272.4 552.4,320.7 508.9,296.3" fill="#b7bd91" stroke="#67705e" stroke-width="1"/><path d="M508.9,337.3 L552.36,361.68 M638.46,313.38 L552.36,361.68" stroke="#536b51" stroke-width="2.5" fill="none"/><path d="M508.9,319.3 L552.36,343.68 M638.46,295.38 L552.36,343.68" stroke="#536b51" stroke-width="2.5" fill="none"/><path d="M508.9,355.3 L508.9,296.3 M552.36,379.68 L552.36,320.68 M638.46,331.38 L638.46,272.38" stroke="#536b51" stroke-width="3" fill="none"/><polygon points="273.6,265.5 187.5,313.8 187.5,372.8 273.6,324.5" fill="#768765" stroke="#67705e" stroke-width="1"/><polygon points="144.0,289.4 187.5,313.8 187.5,372.8 144.0,348.4" fill="#939e75" stroke="#67705e" stroke-width="1"/><polygon points="230.1,241.1 273.6,265.5 187.5,313.8 144.0,289.4" fill="#b7bd91" stroke="#67705e" stroke-width="1"/><path d="M143.99999999999997,330.4 L187.46,354.78 M273.56,306.47999999999996 L187.46,354.78" stroke="#536b51" stroke-width="2.5" fill="none"/><path d="M143.99999999999997,312.4 L187.46,336.78 M273.56,288.47999999999996 L187.46,336.78" stroke="#536b51" stroke-width="2.5" fill="none"/><path d="M143.99999999999997,348.4 L143.99999999999997,289.4 M187.46,372.78 L187.46,313.78 M273.56,324.47999999999996 L273.56,265.47999999999996" stroke="#536b51" stroke-width="3" fill="none"/><polygon points="367.9,318.4 281.8,366.7 281.8,425.7 367.9,377.4" fill="#768765" stroke="#67705e" stroke-width="1"/><polygon points="238.3,342.3 281.8,366.7 281.8,425.7 238.3,401.3" fill="#939e75" stroke="#67705e" stroke-width="1"/><polygon points="324.4,294.0 367.9,318.4 281.8,366.7 238.3,342.3" fill="#b7bd91" stroke="#67705e" stroke-width="1"/><path d="M238.29999999999998,383.3 L281.76,407.68 M367.85999999999996,359.38 L281.76,407.68" stroke="#536b51" stroke-width="2.5" fill="none"/><path d="M238.29999999999998,365.3 L281.76,389.68 M367.85999999999996,341.38 L281.76,389.68" stroke="#536b51" stroke-width="2.5" fill="none"/><path d="M238.29999999999998,401.3 L238.29999999999998,342.3 M281.76,425.68 L281.76,366.68 M367.85999999999996,377.38 L367.85999999999996,318.38" stroke="#536b51" stroke-width="3" fill="none"/><polygon points="462.2,371.3 376.1,419.6 376.1,478.6 462.2,430.3" fill="#768765" stroke="#67705e" stroke-width="1"/><polygon points="332.6,395.2 376.1,419.6 376.1,478.6 332.6,454.2" fill="#939e75" stroke="#67705e" stroke-width="1"/><polygon points="418.7,346.9 462.2,371.3 376.1,419.6 332.6,395.2" fill="#b7bd91" stroke="#67705e" stroke-width="1"/><path d="M332.6,436.2 L376.06000000000006,460.58 M462.16,412.28 L376.06000000000006,460.58" stroke="#536b51" stroke-width="2.5" fill="none"/><path d="M332.6,418.2 L376.06000000000006,442.58 M462.16,394.28 L376.06000000000006,442.58" stroke="#536b51" stroke-width="2.5" fill="none"/><path d="M332.6,454.2 L332.6,395.2 M376.06000000000006,478.58 L376.06000000000006,419.58 M462.16,430.28 L462.16,371.28" stroke="#536b51" stroke-width="3" fill="none"/><polygon points="476.1,441.5 451.5,455.3 451.5,470.3 476.1,456.5" fill="#aa8256" stroke="#67705e" stroke-width="1"/><polygon points="431.0,443.8 451.5,455.3 451.5,470.3 431.0,458.8" fill="#bc9365" stroke="#67705e" stroke-width="1"/><polygon points="455.6,430.0 476.1,441.5 451.5,455.3 431.0,443.8" fill="#d7b98b" stroke="#67705e" stroke-width="1"/><polygon points="445.8,453.4 424.4,465.4 424.4,486.4 445.8,474.4" fill="#aa8256" stroke="#67705e" stroke-width="1"/><polygon points="401.5,452.5 424.4,465.4 424.4,486.4 401.5,473.5" fill="#bc9365" stroke="#67705e" stroke-width="1"/><polygon points="422.8,440.6 445.8,453.4 424.4,465.4 401.5,452.5" fill="#d7b98b" stroke="#67705e" stroke-width="1"/><ellipse cx="107.10000000000002" cy="323.1" rx="26" ry="14" fill="#cb654d" opacity=".13" stroke="#b64b2a" stroke-width="1.4"/><polygon points="133.3,306.9 112.0,318.9 112.0,336.9 133.3,324.9" fill="#943f28" stroke="#67705e" stroke-width="1"/><polygon points="84.1,303.3 112.0,318.9 112.0,336.9 84.1,321.3" fill="#b95233" stroke="#67705e" stroke-width="1"/><polygon points="105.5,291.3 133.3,306.9 112.0,318.9 84.1,303.3" fill="#d4704f" stroke="#67705e" stroke-width="1"/><path d="m104.38,303.18 8,-4 -1,7" fill="none" stroke="#fff6dd" stroke-width="2"/><ellipse cx="674.54" cy="327.62" rx="9" ry="5" fill="#c25732"/><path d="M674.54 322.62 v-55" stroke="#8a987a" stroke-width="1"/><circle cx="674.54" cy="264.62" r="6" fill="#d8ed9d" stroke="#627956"/><g font-family="Consolas,monospace" fill="#53634f" font-size="10" letter-spacing="1.1"><text x="644.54" y="248.62">PACKING</text><text x="125" y="479">RECEIVING</text><path d="M185 466 218 421" stroke="#859375" fill="none"/><text x="346" y="568" font-size="8" fill="#7b8875">A WAREHOUSE. A ROBOT. A QUESTION.</text></g></svg>
